<svg xmlns="http://www.w3.org/2000/svg" viewBox="0 0 23.95 23.95"><defs><style>.cls-1{fill:#eb0000;}.cls-2{fill:#f80600;}</style></defs><title>product-delete</title><g id="Layer_2" data-name="Layer 2"><g id="icons"><path class="cls-1" d="M12,23.95a12,12,0,1,1,12-12A12,12,0,0,1,12,23.95ZM12,1.3A10.67,10.67,0,1,0,22.65,12,10.69,10.69,0,0,0,12,1.3Z"/><path class="cls-2" d="M18.29,17.54,12.72,12l5.57-5.57a.53.53,0,0,0-.74-.74L12,11.23,6.41,5.66a.53.53,0,1,0-.74.74L11.23,12,5.66,17.54a.53.53,0,1,0,.74.74L12,12.72l5.57,5.57a.53.53,0,0,0,.74-.74Z"/></g></g></svg>