<svg xmlns="http://www.w3.org/2000/svg" viewBox="0 0 23.99 23.99"><defs><style>.cls-1{fill:#fff;}</style></defs><title>ShoppingCart</title><g id="Layer_2" data-name="Layer 2"><g id="icons"><path class="cls-1" d="M19,12.1l4.94-9.16a.65.65,0,0,0-1.15-.62L18.19,10.8h-9L3.93,0H.65a.65.65,0,0,0,0,1.3H3.12L8.06,11.44,6.29,14.88a1.15,1.15,0,0,0,1,1.68H22a.65.65,0,0,0,0-1.3H7.56L9.18,12.1Z"/><path class="cls-1" d="M7.64,18.23a2.88,2.88,0,1,0,2.88,2.88A2.88,2.88,0,0,0,7.64,18.23Zm0,4.46a1.58,1.58,0,1,1,1.58-1.58A1.58,1.58,0,0,1,7.64,22.69Z"/><path class="cls-1" d="M19.49,18.23a2.88,2.88,0,1,0,2.88,2.88A2.88,2.88,0,0,0,19.49,18.23Zm0,4.46a1.58,1.58,0,1,1,1.58-1.58A1.58,1.58,0,0,1,19.49,22.69Z"/></g></g></svg>