<svg xmlns="http://www.w3.org/2000/svg" viewBox="0 0 134.96 24.74"><defs><style>.cls-1{fill:#fcfcfc;}.cls-2{fill:none;stroke:#fff;stroke-miterlimit:10;stroke-width:1.3px;}</style></defs><title>stars</title><g id="Layer_2" data-name="Layer 2"><g id="icons"><polygon class="cls-1" points="11.61 1.47 15.2 8.74 23.22 9.9 17.41 15.56 18.78 23.55 11.61 19.78 4.43 23.55 5.8 15.56 0 9.9 8.02 8.74 11.61 1.47"/><polygon class="cls-1" points="39.2 1.47 42.78 8.74 50.81 9.9 45 15.56 46.37 23.55 39.2 19.78 32.02 23.55 33.39 15.56 27.59 9.9 35.61 8.74 39.2 1.47"/><polygon class="cls-1" points="66.78 1.47 70.37 8.74 78.39 9.9 72.59 15.56 73.96 23.55 66.78 19.78 59.61 23.55 60.98 15.56 55.17 9.9 63.2 8.74 66.78 1.47"/><polygon class="cls-1" points="94.37 1.47 97.96 8.74 105.98 9.9 100.18 15.56 101.55 23.55 94.37 19.78 87.2 23.55 88.57 15.56 82.76 9.9 90.78 8.74 94.37 1.47"/><polygon class="cls-2" points="121.96 1.47 125.55 8.74 133.57 9.9 127.76 15.56 129.13 23.55 121.96 19.78 114.78 23.55 116.15 15.56 110.35 9.9 118.37 8.74 121.96 1.47"/></g></g></svg>